<svg xmlns="http://www.w3.org/2000/svg" viewBox="0 0 1200 900" role="img" aria-labelledby="title desc">
  <title id="title">Diverse midlife women walking together outdoors</title>
  <desc id="desc">A warm branded illustration of four fully clothed midlife women with varied skin tones, hair textures, and body types walking together in a park.</desc>
  <defs>
    <linearGradient id="sky" x1="0" y1="0" x2="0" y2="1">
      <stop offset="0" stop-color="#F7EFE6"/>
      <stop offset="1" stop-color="#DDEBE7"/>
    </linearGradient>
    <radialGradient id="sun" cx="82%" cy="17%" r="34%">
      <stop offset="0" stop-color="#F4D8A9" stop-opacity=".95"/>
      <stop offset="1" stop-color="#F4D8A9" stop-opacity="0"/>
    </radialGradient>
    <linearGradient id="path" x1="0" y1="0" x2="1" y2="1">
      <stop offset="0" stop-color="#F4EEE5"/>
      <stop offset="1" stop-color="#C9B899"/>
    </linearGradient>
    <filter id="shadow" x="-20%" y="-20%" width="140%" height="140%">
      <feDropShadow dx="0" dy="14" stdDeviation="18" flood-color="#081D1B" flood-opacity=".22"/>
    </filter>
  </defs>
  <rect width="1200" height="900" fill="url(#sky)"/>
  <rect width="1200" height="900" fill="url(#sun)"/>
  <path d="M0 610 C220 560 380 595 540 550 C710 503 900 520 1200 470 L1200 900 L0 900 Z" fill="#8AAE8B" opacity=".5"/>
  <path d="M0 700 C260 642 450 658 660 610 C860 565 1010 585 1200 545 L1200 900 L0 900 Z" fill="#2D6B68" opacity=".14"/>
  <path d="M420 900 C480 760 600 645 720 575 C804 527 891 494 1010 458 L1200 546 L1200 900 Z" fill="url(#path)" opacity=".88"/>
  <g opacity=".25" stroke="#2D6B68" stroke-width="18" stroke-linecap="round">
    <path d="M93 400 C170 330 228 270 260 186"/>
    <path d="M1090 365 C1015 296 968 231 944 145"/>
    <path d="M181 332 L142 196"/>
    <path d="M1017 304 L1061 180"/>
  </g>
  <g filter="url(#shadow)">
    <g transform="translate(255 280)">
      <circle cx="80" cy="80" r="54" fill="#6B3D2C"/>
      <path d="M35 79 C35 28 67 7 98 19 C137 33 139 83 113 119 C82 120 58 105 35 79Z" fill="#2A1D1A" opacity=".9"/>
      <path d="M28 172 C50 136 111 132 137 174 L157 360 L0 360 Z" fill="#1A413E"/>
      <path d="M25 209 L-24 313" stroke="#6B3D2C" stroke-width="26" stroke-linecap="round"/>
      <path d="M132 205 L183 301" stroke="#6B3D2C" stroke-width="26" stroke-linecap="round"/>
      <path d="M53 360 L40 520" stroke="#202A2A" stroke-width="34" stroke-linecap="round"/>
      <path d="M112 360 L137 520" stroke="#202A2A" stroke-width="34" stroke-linecap="round"/>
      <path d="M42 165 C63 190 106 190 132 166" fill="none" stroke="#D4B583" stroke-width="9" stroke-linecap="round"/>
    </g>
    <g transform="translate(445 245)">
      <circle cx="86" cy="84" r="52" fill="#A1664B"/>
      <path d="M39 74 C42 31 76 0 123 25 C155 43 152 88 132 122 C96 100 63 102 39 74Z" fill="#4B3028"/>
      <path d="M25 178 C55 132 120 130 150 176 L181 390 L0 390 Z" fill="#6FA3A2"/>
      <path d="M33 224 L-13 335" stroke="#A1664B" stroke-width="27" stroke-linecap="round"/>
      <path d="M144 223 L203 321" stroke="#A1664B" stroke-width="27" stroke-linecap="round"/>
      <path d="M61 390 L52 540" stroke="#314B47" stroke-width="35" stroke-linecap="round"/>
      <path d="M126 390 L154 540" stroke="#314B47" stroke-width="35" stroke-linecap="round"/>
      <path d="M54 177 C73 202 123 202 146 176" fill="none" stroke="#FBF9F4" stroke-width="10" stroke-linecap="round"/>
    </g>
    <g transform="translate(650 270)">
      <circle cx="82" cy="82" r="52" fill="#D2A07F"/>
      <path d="M37 81 C31 32 63 2 104 14 C148 27 155 80 126 122 C91 116 61 107 37 81Z" fill="#5D4740"/>
      <path d="M23 174 C50 136 116 132 143 175 L166 365 L4 365 Z" fill="#B08F5F"/>
      <path d="M28 220 L-19 316" stroke="#D2A07F" stroke-width="26" stroke-linecap="round"/>
      <path d="M139 219 L187 323" stroke="#D2A07F" stroke-width="26" stroke-linecap="round"/>
      <path d="M55 365 L43 522" stroke="#343035" stroke-width="34" stroke-linecap="round"/>
      <path d="M112 365 L137 522" stroke="#343035" stroke-width="34" stroke-linecap="round"/>
      <path d="M53 171 C75 195 113 195 139 172" fill="none" stroke="#1A413E" stroke-width="9" stroke-linecap="round"/>
    </g>
    <g transform="translate(820 255)">
      <circle cx="84" cy="84" r="52" fill="#8F5E45"/>
      <path d="M39 73 C53 20 93 -4 127 26 C158 53 146 101 121 126 C95 117 63 106 39 73Z" fill="#E7E1D8"/>
      <path d="M24 180 C53 136 121 132 151 181 L174 382 L0 382 Z" fill="#FBF9F4"/>
      <path d="M43 181 C62 203 122 203 148 181" fill="none" stroke="#2D6B68" stroke-width="11" stroke-linecap="round"/>
      <path d="M31 226 L-16 327" stroke="#8F5E45" stroke-width="26" stroke-linecap="round"/>
      <path d="M144 226 L194 322" stroke="#8F5E45" stroke-width="26" stroke-linecap="round"/>
      <path d="M59 382 L47 535" stroke="#1A413E" stroke-width="35" stroke-linecap="round"/>
      <path d="M122 382 L153 535" stroke="#1A413E" stroke-width="35" stroke-linecap="round"/>
    </g>
  </g>
  <g opacity=".5" fill="none" stroke="#B08F5F" stroke-width="5">
    <circle cx="958" cy="133" r="56"/>
    <path d="M923 132 C945 154 978 154 997 132"/>
  </g>
</svg>
